<svg width="110" height="91" viewBox="0 0 110 91" fill="none" xmlns="http://www.w3.org/2000/svg">
<path d="M0 44.58C0 39.0572 4.47715 34.58 10 34.58H82.2581C87.7809 34.58 92.2581 39.0572 92.2581 44.58V54.61C92.2581 60.1329 87.7809 64.61 82.2581 64.61H12.7904C10.784 64.61 9.07095 66.0591 8.73839 68.0378C7.97654 72.5707 1.48156 72.6236 0.645936 68.1038L0.0776651 65.0301C0.0259967 64.7506 0 64.467 0 64.1828V44.58Z" fill="#5877AD"/>
<path d="M110 9.99999C110 4.47714 105.523 0 100 0H27.7419C22.2191 0 17.7419 4.47715 17.7419 10V20.03C17.7419 25.5529 22.2191 30.03 27.7419 30.03H97.2096C99.216 30.03 100.929 31.4791 101.262 33.4578C102.023 37.9906 108.518 38.0436 109.354 33.5238L109.922 30.4501C109.974 30.1706 110 29.887 110 29.6028V9.99999Z" fill="white"/>
<path d="M110 9.99999C110 4.47714 105.523 0 100 0H27.7419C22.2191 0 17.7419 4.47715 17.7419 10V20.03C17.7419 25.5529 22.2191 30.03 27.7419 30.03H97.2096C99.216 30.03 100.929 31.4791 101.262 33.4578C102.023 37.9906 108.518 38.0436 109.354 33.5238L109.922 30.4501C109.974 30.1706 110 29.887 110 29.6028V9.99999Z" fill="#6A67C2"/>
</svg>
